<svg width="2737" height="1662" viewBox="0 0 2737 1662" fill="none" xmlns="http://www.w3.org/2000/svg">
<g opacity="0.2" filter="url(#filter0_f_175_194)">
<ellipse cx="1368.5" cy="831.198" rx="967.5" ry="430.279" fill="#FF0000"/>
</g>
<path d="M676.654 834.886C678.812 834.886 680.445 835.661 681.555 837.211C682.684 838.744 683.248 840.975 683.248 843.905C683.248 846.834 682.684 849.074 681.555 850.624C680.445 852.174 678.812 852.949 676.654 852.949C674.517 852.949 672.883 852.174 671.754 850.624C670.625 849.074 670.06 846.834 670.06 843.905C670.06 840.992 670.625 838.761 671.754 837.211C672.883 835.661 674.517 834.886 676.654 834.886ZM672.208 843.905C672.208 845.982 672.43 847.609 672.873 848.784L679.588 837.466C678.883 836.666 677.905 836.265 676.654 836.265C675.263 836.265 674.174 836.896 673.388 838.156C672.601 839.399 672.208 841.316 672.208 843.905ZM676.654 851.544C678.066 851.544 679.165 850.922 679.951 849.679C680.738 848.418 681.131 846.493 681.131 843.905C681.131 841.707 680.879 840.004 680.375 838.795L673.66 850.215C674.386 851.101 675.384 851.544 676.654 851.544Z" fill="url(#paint0_linear_175_194)" fill-opacity="0.6"/>
<path d="M678.469 880.538H682.916V881.892H671.391V880.538H676.533V866.18L671.633 868.658L670.786 867.508L676.836 864.34H678.469V880.538Z" fill="url(#paint1_linear_175_194)" fill-opacity="0.6"/>
<path d="M676.654 893.283C678.812 893.283 680.445 894.058 681.555 895.608C682.684 897.141 683.248 899.372 683.248 902.302C683.248 905.232 682.684 907.471 681.555 909.021C680.445 910.571 678.812 911.346 676.654 911.346C674.517 911.346 672.883 910.571 671.754 909.021C670.625 907.471 670.06 905.232 670.06 902.302C670.06 899.39 670.625 897.158 671.754 895.608C672.883 894.058 674.517 893.283 676.654 893.283ZM672.208 902.302C672.208 904.38 672.43 906.007 672.873 907.182L679.588 895.864C678.883 895.063 677.905 894.663 676.654 894.663C675.263 894.663 674.174 895.293 673.388 896.554C672.601 897.797 672.208 899.713 672.208 902.302ZM676.654 909.941C678.066 909.941 679.165 909.32 679.951 908.076C680.738 906.816 681.131 904.891 681.131 902.302C681.131 900.105 680.879 898.402 680.375 897.192L673.66 908.613C674.386 909.498 675.384 909.941 676.654 909.941Z" fill="url(#paint2_linear_175_194)" fill-opacity="0.6"/>
<path d="M678.469 938.936H682.916V940.29H671.391V938.936H676.533V924.577L671.633 927.055L670.786 925.906L676.836 922.738H678.469V938.936Z" fill="url(#paint3_linear_175_194)" fill-opacity="0.6"/>
<path d="M678.469 968.134H682.916V969.488H671.391V968.134H676.533V953.776L671.633 956.254L670.786 955.104L676.836 951.936H678.469V968.134Z" fill="url(#paint4_linear_175_194)" fill-opacity="0.6"/>
<path d="M676.654 980.88C678.812 980.88 680.445 981.655 681.555 983.205C682.684 984.738 683.248 986.969 683.248 989.898C683.248 992.828 682.684 995.068 681.555 996.618C680.445 998.168 678.812 998.943 676.654 998.943C674.517 998.943 672.883 998.168 671.754 996.618C670.625 995.068 670.06 992.828 670.06 989.898C670.06 986.986 670.625 984.755 671.754 983.205C672.883 981.655 674.517 980.88 676.654 980.88ZM672.208 989.898C672.208 991.976 672.43 993.603 672.873 994.778L679.588 983.46C678.883 982.66 677.905 982.259 676.654 982.259C675.263 982.259 674.174 982.89 673.388 984.15C672.601 985.393 672.208 987.309 672.208 989.898ZM676.654 997.538C678.066 997.538 679.165 996.916 679.951 995.673C680.738 994.412 681.131 992.487 681.131 989.898C681.131 987.701 680.879 985.998 680.375 984.789L673.66 996.209C674.386 997.095 675.384 997.538 676.654 997.538Z" fill="url(#paint5_linear_175_194)" fill-opacity="0.6"/>
<path d="M678.469 1026.53H682.916V1027.89H671.391V1026.53H676.533V1012.17L671.633 1014.65L670.786 1013.5L676.836 1010.33H678.469V1026.53Z" fill="url(#paint6_linear_175_194)" fill-opacity="0.6"/>
<path d="M676.654 1039.28C678.812 1039.28 680.445 1040.05 681.555 1041.6C682.684 1043.14 683.248 1045.37 683.248 1048.3C683.248 1051.23 682.684 1053.47 681.555 1055.02C680.445 1056.57 678.812 1057.34 676.654 1057.34C674.517 1057.34 672.883 1056.57 671.754 1055.02C670.625 1053.47 670.06 1051.23 670.06 1048.3C670.06 1045.38 670.625 1043.15 671.754 1041.6C672.883 1040.05 674.517 1039.28 676.654 1039.28ZM672.208 1048.3C672.208 1050.37 672.43 1052 672.873 1053.18L679.588 1041.86C678.883 1041.06 677.905 1040.66 676.654 1040.66C675.263 1040.66 674.174 1041.29 673.388 1042.55C672.601 1043.79 672.208 1045.71 672.208 1048.3ZM676.654 1055.94C678.066 1055.94 679.165 1055.31 679.951 1054.07C680.738 1052.81 681.131 1050.88 681.131 1048.3C681.131 1046.1 680.879 1044.4 680.375 1043.19L673.66 1054.61C674.386 1055.49 675.384 1055.94 676.654 1055.94Z" fill="url(#paint7_linear_175_194)" fill-opacity="0.6"/>
<path d="M676.654 1068.48C678.812 1068.48 680.445 1069.25 681.555 1070.8C682.684 1072.33 683.248 1074.57 683.248 1077.49C683.248 1080.42 682.684 1082.66 681.555 1084.21C680.445 1085.76 678.812 1086.54 676.654 1086.54C674.517 1086.54 672.883 1085.76 671.754 1084.21C670.625 1082.66 670.06 1080.42 670.06 1077.49C670.06 1074.58 670.625 1072.35 671.754 1070.8C672.883 1069.25 674.517 1068.48 676.654 1068.48ZM672.208 1077.49C672.208 1079.57 672.43 1081.2 672.873 1082.37L679.588 1071.06C678.883 1070.26 677.905 1069.86 676.654 1069.86C675.263 1069.86 674.174 1070.49 673.388 1071.75C672.601 1072.99 672.208 1074.91 672.208 1077.49ZM676.654 1085.13C678.066 1085.13 679.165 1084.51 679.951 1083.27C680.738 1082.01 681.131 1080.08 681.131 1077.49C681.131 1075.3 680.879 1073.59 680.375 1072.38L673.66 1083.81C674.386 1084.69 675.384 1085.13 676.654 1085.13Z" fill="url(#paint8_linear_175_194)" fill-opacity="0.6"/>
<path d="M678.469 1114.13H682.916V1115.48H671.391V1114.13H676.533V1099.77L671.633 1102.25L670.786 1101.1L676.836 1097.93H678.469V1114.13Z" fill="url(#paint9_linear_175_194)" fill-opacity="0.6"/>
<path d="M676.654 1126.87C678.812 1126.87 680.445 1127.65 681.555 1129.2C682.684 1130.73 683.248 1132.96 683.248 1135.89C683.248 1138.82 682.684 1141.06 681.555 1142.61C680.445 1144.16 678.812 1144.94 676.654 1144.94C674.517 1144.94 672.883 1144.16 671.754 1142.61C670.625 1141.06 670.06 1138.82 670.06 1135.89C670.06 1132.98 670.625 1130.75 671.754 1129.2C672.883 1127.65 674.517 1126.87 676.654 1126.87ZM672.208 1135.89C672.208 1137.97 672.43 1139.6 672.873 1140.77L679.588 1129.45C678.883 1128.65 677.905 1128.25 676.654 1128.25C675.263 1128.25 674.174 1128.88 673.388 1130.14C672.601 1131.39 672.208 1133.3 672.208 1135.89ZM676.654 1143.53C678.066 1143.53 679.165 1142.91 679.951 1141.67C680.738 1140.41 681.131 1138.48 681.131 1135.89C681.131 1133.7 680.879 1131.99 680.375 1130.78L673.66 1142.2C674.386 1143.09 675.384 1143.53 676.654 1143.53Z" fill="url(#paint10_linear_175_194)" fill-opacity="0.6"/>
<path d="M678.469 1172.53H682.916V1173.88H671.391V1172.53H676.533V1158.17L671.633 1160.65L670.786 1159.5L676.836 1156.33H678.469V1172.53Z" fill="url(#paint11_linear_175_194)" fill-opacity="0.6"/>
<path d="M678.469 1201.72H682.916V1203.08H671.391V1201.72H676.533V1187.37L671.633 1189.84L670.786 1188.69L676.836 1185.53H678.469V1201.72Z" fill="url(#paint12_linear_175_194)" fill-opacity="0.6"/>
<path d="M732.829 893.283C734.986 893.283 736.62 894.058 737.729 895.608C738.858 897.141 739.423 899.372 739.423 902.302C739.423 905.232 738.858 907.471 737.729 909.021C736.62 910.571 734.986 911.346 732.829 911.346C730.691 911.346 729.058 910.571 727.929 909.021C726.799 907.471 726.235 905.232 726.235 902.302C726.235 899.39 726.799 897.158 727.929 895.608C729.058 894.058 730.691 893.283 732.829 893.283ZM728.382 902.302C728.382 904.38 728.604 906.007 729.048 907.182L735.763 895.864C735.057 895.063 734.079 894.663 732.829 894.663C731.437 894.663 730.349 895.293 729.562 896.554C728.776 897.797 728.382 899.713 728.382 902.302ZM732.829 909.941C734.24 909.941 735.339 909.32 736.126 908.076C736.912 906.816 737.305 904.891 737.305 902.302C737.305 900.105 737.053 898.402 736.549 897.192L729.834 908.613C730.56 909.498 731.558 909.941 732.829 909.941Z" fill="url(#paint13_linear_175_194)" fill-opacity="0.6"/>
<path d="M734.644 938.936H739.09V940.29H727.566V938.936H732.708V924.577L727.808 927.055L726.961 925.906L733.01 922.738H734.644V938.936Z" fill="url(#paint14_linear_175_194)" fill-opacity="0.6"/>
<path d="M732.829 951.681C734.986 951.681 736.62 952.456 737.729 954.006C738.858 955.539 739.423 957.77 739.423 960.7C739.423 963.629 738.858 965.869 737.729 967.419C736.62 968.969 734.986 969.744 732.829 969.744C730.691 969.744 729.058 968.969 727.929 967.419C726.799 965.869 726.235 963.629 726.235 960.7C726.235 957.787 726.799 955.556 727.929 954.006C729.058 952.456 730.691 951.681 732.829 951.681ZM728.382 960.7C728.382 962.778 728.604 964.404 729.048 965.579L735.763 954.261C735.057 953.461 734.079 953.061 732.829 953.061C731.437 953.061 730.349 953.691 729.562 954.951C728.776 956.195 728.382 958.111 728.382 960.7ZM732.829 968.339C734.24 968.339 735.339 967.717 736.126 966.474C736.912 965.213 737.305 963.289 737.305 960.7C737.305 958.502 737.053 956.799 736.549 955.59L729.834 967.01C730.56 967.896 731.558 968.339 732.829 968.339Z" fill="url(#paint15_linear_175_194)" fill-opacity="0.6"/>
<path d="M732.829 980.88C734.986 980.88 736.62 981.655 737.729 983.205C738.858 984.738 739.423 986.969 739.423 989.898C739.423 992.828 738.858 995.068 737.729 996.618C736.62 998.168 734.986 998.943 732.829 998.943C730.691 998.943 729.058 998.168 727.929 996.618C726.799 995.068 726.235 992.828 726.235 989.898C726.235 986.986 726.799 984.755 727.929 983.205C729.058 981.655 730.691 980.88 732.829 980.88ZM728.382 989.898C728.382 991.976 728.604 993.603 729.048 994.778L735.763 983.46C735.057 982.66 734.079 982.259 732.829 982.259C731.437 982.259 730.349 982.89 729.562 984.15C728.776 985.393 728.382 987.309 728.382 989.898ZM732.829 997.538C734.24 997.538 735.339 996.916 736.126 995.673C736.912 994.412 737.305 992.487 737.305 989.898C737.305 987.701 737.053 985.998 736.549 984.789L729.834 996.209C730.56 997.095 731.558 997.538 732.829 997.538Z" fill="url(#paint16_linear_175_194)" fill-opacity="0.6"/>
<path d="M734.644 1026.53H739.09V1027.89H727.566V1026.53H732.708V1012.17L727.808 1014.65L726.961 1013.5L733.01 1010.33H734.644V1026.53Z" fill="url(#paint17_linear_175_194)" fill-opacity="0.6"/>
<path d="M732.829 1039.28C734.986 1039.28 736.62 1040.05 737.729 1041.6C738.858 1043.14 739.423 1045.37 739.423 1048.3C739.423 1051.23 738.858 1053.47 737.729 1055.02C736.62 1056.57 734.986 1057.34 732.829 1057.34C730.691 1057.34 729.058 1056.57 727.929 1055.02C726.799 1053.47 726.235 1051.23 726.235 1048.3C726.235 1045.38 726.799 1043.15 727.929 1041.6C729.058 1040.05 730.691 1039.28 732.829 1039.28ZM728.382 1048.3C728.382 1050.37 728.604 1052 729.048 1053.18L735.763 1041.86C735.057 1041.06 734.079 1040.66 732.829 1040.66C731.437 1040.66 730.349 1041.29 729.562 1042.55C728.776 1043.79 728.382 1045.71 728.382 1048.3ZM732.829 1055.94C734.24 1055.94 735.339 1055.31 736.126 1054.07C736.912 1052.81 737.305 1050.88 737.305 1048.3C737.305 1046.1 737.053 1044.4 736.549 1043.19L729.834 1054.61C730.56 1055.49 731.558 1055.94 732.829 1055.94Z" fill="url(#paint18_linear_175_194)" fill-opacity="0.6"/>
<path d="M734.644 1084.93H739.09V1086.28H727.566V1084.93H732.708V1070.57L727.808 1073.05L726.961 1071.9L733.01 1068.73H734.644V1084.93Z" fill="url(#paint19_linear_175_194)" fill-opacity="0.6"/>
<path d="M732.829 1097.67C734.986 1097.67 736.62 1098.45 737.729 1100C738.858 1101.53 739.423 1103.76 739.423 1106.69C739.423 1109.62 738.858 1111.86 737.729 1113.41C736.62 1114.96 734.986 1115.74 732.829 1115.74C730.691 1115.74 729.058 1114.96 727.929 1113.41C726.799 1111.86 726.235 1109.62 726.235 1106.69C726.235 1103.78 726.799 1101.55 727.929 1100C729.058 1098.45 730.691 1097.67 732.829 1097.67ZM728.382 1106.69C728.382 1108.77 728.604 1110.4 729.048 1111.57L735.763 1100.26C735.057 1099.45 734.079 1099.05 732.829 1099.05C731.437 1099.05 730.349 1099.68 729.562 1100.95C728.776 1102.19 728.382 1104.1 728.382 1106.69ZM732.829 1114.33C734.24 1114.33 735.339 1113.71 736.126 1112.47C736.912 1111.21 737.305 1109.28 737.305 1106.69C737.305 1104.5 737.053 1102.79 736.549 1101.58L729.834 1113C730.56 1113.89 731.558 1114.33 732.829 1114.33Z" fill="url(#paint20_linear_175_194)" fill-opacity="0.6"/>
<path d="M732.829 1126.87C734.986 1126.87 736.62 1127.65 737.729 1129.2C738.858 1130.73 739.423 1132.96 739.423 1135.89C739.423 1138.82 738.858 1141.06 737.729 1142.61C736.62 1144.16 734.986 1144.94 732.829 1144.94C730.691 1144.94 729.058 1144.16 727.929 1142.61C726.799 1141.06 726.235 1138.82 726.235 1135.89C726.235 1132.98 726.799 1130.75 727.929 1129.2C729.058 1127.65 730.691 1126.87 732.829 1126.87ZM728.382 1135.89C728.382 1137.97 728.604 1139.6 729.048 1140.77L735.763 1129.45C735.057 1128.65 734.079 1128.25 732.829 1128.25C731.437 1128.25 730.349 1128.88 729.562 1130.14C728.776 1131.39 728.382 1133.3 728.382 1135.89ZM732.829 1143.53C734.24 1143.53 735.339 1142.91 736.126 1141.67C736.912 1140.41 737.305 1138.48 737.305 1135.89C737.305 1133.7 737.053 1131.99 736.549 1130.78L729.834 1142.2C730.56 1143.09 731.558 1143.53 732.829 1143.53Z" fill="url(#paint21_linear_175_194)" fill-opacity="0.6"/>
<path d="M734.644 1172.53H739.09V1173.88H727.566V1172.53H732.708V1158.17L727.808 1160.65L726.961 1159.5L733.01 1156.33H734.644V1172.53Z" fill="url(#paint22_linear_175_194)" fill-opacity="0.6"/>
<path d="M732.829 1185.27C734.986 1185.27 736.62 1186.05 737.729 1187.6C738.858 1189.13 739.423 1191.36 739.423 1194.29C739.423 1197.22 738.858 1199.46 737.729 1201.01C736.62 1202.56 734.986 1203.33 732.829 1203.33C730.691 1203.33 729.058 1202.56 727.929 1201.01C726.799 1199.46 726.235 1197.22 726.235 1194.29C726.235 1191.38 726.799 1189.15 727.929 1187.6C729.058 1186.05 730.691 1185.27 732.829 1185.27ZM728.382 1194.29C728.382 1196.37 728.604 1197.99 729.048 1199.17L735.763 1187.85C735.057 1187.05 734.079 1186.65 732.829 1186.65C731.437 1186.65 730.349 1187.28 729.562 1188.54C728.776 1189.78 728.382 1191.7 728.382 1194.29ZM732.829 1201.93C734.24 1201.93 735.339 1201.31 736.126 1200.06C736.912 1198.8 737.305 1196.88 737.305 1194.29C737.305 1192.09 737.053 1190.39 736.549 1189.18L729.834 1200.6C730.56 1201.49 731.558 1201.93 732.829 1201.93Z" fill="url(#paint23_linear_175_194)" fill-opacity="0.6"/>
<path d="M734.644 1230.92H739.09V1232.28H727.566V1230.92H732.708V1216.56L727.808 1219.04L726.961 1217.89L733.01 1214.73H734.644V1230.92Z" fill="url(#paint24_linear_175_194)" fill-opacity="0.6"/>
<path d="M734.644 1260.12H739.09V1261.48H727.566V1260.12H732.708V1245.76L727.808 1248.24L726.961 1247.09L733.01 1243.92H734.644V1260.12Z" fill="url(#paint25_linear_175_194)" fill-opacity="0.6"/>
<path d="M648.567 922.482C650.725 922.482 652.358 923.257 653.467 924.807C654.597 926.34 655.161 928.571 655.161 931.501C655.161 934.43 654.597 936.67 653.467 938.22C652.358 939.77 650.725 940.545 648.567 940.545C646.43 940.545 644.796 939.77 643.667 938.22C642.538 936.67 641.973 934.43 641.973 931.501C641.973 928.588 642.538 926.357 643.667 924.807C644.796 923.257 646.43 922.482 648.567 922.482ZM644.121 931.501C644.121 933.579 644.343 935.205 644.786 936.381L651.501 925.063C650.795 924.262 649.817 923.862 648.567 923.862C647.176 923.862 646.087 924.492 645.3 925.752C644.514 926.996 644.121 928.912 644.121 931.501ZM648.567 939.14C649.979 939.14 651.078 938.518 651.864 937.275C652.651 936.015 653.044 934.09 653.044 931.501C653.044 929.304 652.792 927.6 652.288 926.391L645.573 937.811C646.299 938.697 647.297 939.14 648.567 939.14Z" fill="url(#paint26_linear_175_194)" fill-opacity="0.6"/>
<path d="M648.567 951.681C650.725 951.681 652.358 952.456 653.467 954.006C654.597 955.539 655.161 957.77 655.161 960.7C655.161 963.629 654.597 965.869 653.467 967.419C652.358 968.969 650.725 969.744 648.567 969.744C646.43 969.744 644.796 968.969 643.667 967.419C642.538 965.869 641.973 963.629 641.973 960.7C641.973 957.787 642.538 955.556 643.667 954.006C644.796 952.456 646.43 951.681 648.567 951.681ZM644.121 960.7C644.121 962.778 644.343 964.404 644.786 965.579L651.501 954.261C650.795 953.461 649.817 953.061 648.567 953.061C647.176 953.061 646.087 953.691 645.3 954.951C644.514 956.195 644.121 958.111 644.121 960.7ZM648.567 968.339C649.979 968.339 651.078 967.717 651.864 966.474C652.651 965.213 653.044 963.289 653.044 960.7C653.044 958.502 652.792 956.799 652.288 955.59L645.573 967.01C646.299 967.896 647.297 968.339 648.567 968.339Z" fill="url(#paint27_linear_175_194)" fill-opacity="0.6"/>
<path d="M650.382 997.333H654.828V998.687H643.304V997.333H648.446V982.975L643.546 985.453L642.699 984.303L648.749 981.135H650.382V997.333Z" fill="url(#paint28_linear_175_194)" fill-opacity="0.6"/>
<path d="M648.567 1010.08C650.725 1010.08 652.358 1010.85 653.467 1012.4C654.597 1013.94 655.161 1016.17 655.161 1019.1C655.161 1022.03 654.597 1024.27 653.467 1025.82C652.358 1027.37 650.725 1028.14 648.567 1028.14C646.43 1028.14 644.796 1027.37 643.667 1025.82C642.538 1024.27 641.973 1022.03 641.973 1019.1C641.973 1016.18 642.538 1013.95 643.667 1012.4C644.796 1010.85 646.43 1010.08 648.567 1010.08ZM644.121 1019.1C644.121 1021.18 644.343 1022.8 644.786 1023.98L651.501 1012.66C650.795 1011.86 649.817 1011.46 648.567 1011.46C647.176 1011.46 646.087 1012.09 645.3 1013.35C644.514 1014.59 644.121 1016.51 644.121 1019.1ZM648.567 1026.74C649.979 1026.74 651.078 1026.11 651.864 1024.87C652.651 1023.61 653.044 1021.69 653.044 1019.1C653.044 1016.9 652.792 1015.2 652.288 1013.99L645.573 1025.41C646.299 1026.29 647.297 1026.74 648.567 1026.74Z" fill="url(#paint29_linear_175_194)" fill-opacity="0.6"/>
<path d="M650.382 1055.73H654.828V1057.08H643.304V1055.73H648.446V1041.37L643.546 1043.85L642.699 1042.7L648.749 1039.53H650.382V1055.73Z" fill="url(#paint30_linear_175_194)" fill-opacity="0.6"/>
<path d="M650.382 1084.93H654.828V1086.28H643.304V1084.93H648.446V1070.57L643.546 1073.05L642.699 1071.9L648.749 1068.73H650.382V1084.93Z" fill="url(#paint31_linear_175_194)" fill-opacity="0.6"/>
<path d="M706.556 880.538H711.003V881.892H699.478V880.538H704.621V866.18L699.72 868.658L698.874 867.508L704.923 864.34H706.556V880.538Z" fill="url(#paint32_linear_175_194)" fill-opacity="0.6"/>
<path d="M704.742 893.283C706.899 893.283 708.533 894.058 709.642 895.608C710.771 897.141 711.336 899.372 711.336 902.302C711.336 905.232 710.771 907.471 709.642 909.021C708.533 910.571 706.899 911.346 704.742 911.346C702.604 911.346 700.971 910.571 699.841 909.021C698.712 907.471 698.148 905.232 698.148 902.302C698.148 899.39 698.712 897.158 699.841 895.608C700.971 894.058 702.604 893.283 704.742 893.283ZM700.295 902.302C700.295 904.38 700.517 906.007 700.961 907.182L707.676 895.864C706.97 895.063 705.992 894.663 704.742 894.663C703.35 894.663 702.261 895.293 701.475 896.554C700.688 897.797 700.295 899.713 700.295 902.302ZM704.742 909.941C706.153 909.941 707.252 909.32 708.039 908.076C708.825 906.816 709.218 904.891 709.218 902.302C709.218 900.105 708.966 898.402 708.462 897.192L701.747 908.613C702.473 909.498 703.471 909.941 704.742 909.941Z" fill="url(#paint33_linear_175_194)" fill-opacity="0.6"/>
<path d="M706.556 938.936H711.003V940.29H699.478V938.936H704.621V924.577L699.72 927.055L698.874 925.906L704.923 922.738H706.556V938.936Z" fill="url(#paint34_linear_175_194)" fill-opacity="0.6"/>
<path d="M706.556 968.134H711.003V969.488H699.478V968.134H704.621V953.776L699.72 956.254L698.874 955.104L704.923 951.936H706.556V968.134Z" fill="url(#paint35_linear_175_194)" fill-opacity="0.6"/>
<path d="M704.742 980.88C706.899 980.88 708.533 981.655 709.642 983.205C710.771 984.738 711.336 986.969 711.336 989.898C711.336 992.828 710.771 995.068 709.642 996.618C708.533 998.168 706.899 998.943 704.742 998.943C702.604 998.943 700.971 998.168 699.841 996.618C698.712 995.068 698.148 992.828 698.148 989.898C698.148 986.986 698.712 984.755 699.841 983.205C700.971 981.655 702.604 980.88 704.742 980.88ZM700.295 989.898C700.295 991.976 700.517 993.603 700.961 994.778L707.676 983.46C706.97 982.66 705.992 982.259 704.742 982.259C703.35 982.259 702.261 982.89 701.475 984.15C700.688 985.393 700.295 987.309 700.295 989.898ZM704.742 997.538C706.153 997.538 707.252 996.916 708.039 995.673C708.825 994.412 709.218 992.487 709.218 989.898C709.218 987.701 708.966 985.998 708.462 984.789L701.747 996.209C702.473 997.095 703.471 997.538 704.742 997.538Z" fill="url(#paint36_linear_175_194)" fill-opacity="0.6"/>
<path d="M706.556 1026.53H711.003V1027.89H699.478V1026.53H704.621V1012.17L699.72 1014.65L698.874 1013.5L704.923 1010.33H706.556V1026.53Z" fill="url(#paint37_linear_175_194)" fill-opacity="0.6"/>
<path d="M706.556 1055.73H711.003V1057.08H699.478V1055.73H704.621V1041.37L699.72 1043.85L698.874 1042.7L704.923 1039.53H706.556V1055.73Z" fill="url(#paint38_linear_175_194)" fill-opacity="0.6"/>
<path d="M704.742 1068.48C706.899 1068.48 708.533 1069.25 709.642 1070.8C710.771 1072.33 711.336 1074.57 711.336 1077.49C711.336 1080.42 710.771 1082.66 709.642 1084.21C708.533 1085.76 706.899 1086.54 704.742 1086.54C702.604 1086.54 700.971 1085.76 699.841 1084.21C698.712 1082.66 698.148 1080.42 698.148 1077.49C698.148 1074.58 698.712 1072.35 699.841 1070.8C700.971 1069.25 702.604 1068.48 704.742 1068.48ZM700.295 1077.49C700.295 1079.57 700.517 1081.2 700.961 1082.37L707.676 1071.06C706.97 1070.26 705.992 1069.86 704.742 1069.86C703.35 1069.86 702.261 1070.49 701.475 1071.75C700.688 1072.99 700.295 1074.91 700.295 1077.49ZM704.742 1085.13C706.153 1085.13 707.252 1084.51 708.039 1083.27C708.825 1082.01 709.218 1080.08 709.218 1077.49C709.218 1075.3 708.966 1073.59 708.462 1072.38L701.747 1083.81C702.473 1084.69 703.471 1085.13 704.742 1085.13Z" fill="url(#paint39_linear_175_194)" fill-opacity="0.6"/>
<path d="M706.556 1114.13H711.003V1115.48H699.478V1114.13H704.621V1099.77L699.72 1102.25L698.874 1101.1L704.923 1097.93H706.556V1114.13Z" fill="url(#paint40_linear_175_194)" fill-opacity="0.6"/>
<path d="M704.742 1126.87C706.899 1126.87 708.533 1127.65 709.642 1129.2C710.771 1130.73 711.336 1132.96 711.336 1135.89C711.336 1138.82 710.771 1141.06 709.642 1142.61C708.533 1144.16 706.899 1144.94 704.742 1144.94C702.604 1144.94 700.971 1144.16 699.841 1142.61C698.712 1141.06 698.148 1138.82 698.148 1135.89C698.148 1132.98 698.712 1130.75 699.841 1129.2C700.971 1127.65 702.604 1126.87 704.742 1126.87ZM700.295 1135.89C700.295 1137.97 700.517 1139.6 700.961 1140.77L707.676 1129.45C706.97 1128.65 705.992 1128.25 704.742 1128.25C703.35 1128.25 702.261 1128.88 701.475 1130.14C700.688 1131.39 700.295 1133.3 700.295 1135.89ZM704.742 1143.53C706.153 1143.53 707.252 1142.91 708.039 1141.67C708.825 1140.41 709.218 1138.48 709.218 1135.89C709.218 1133.7 708.966 1131.99 708.462 1130.78L701.747 1142.2C702.473 1143.09 703.471 1143.53 704.742 1143.53Z" fill="url(#paint41_linear_175_194)" fill-opacity="0.6"/>
<path d="M760.916 864.085C763.074 864.085 764.707 864.86 765.816 866.409C766.945 867.942 767.51 870.174 767.51 873.103C767.51 876.033 766.945 878.273 765.816 879.823C764.707 881.373 763.074 882.148 760.916 882.148C758.779 882.148 757.145 881.373 756.016 879.823C754.887 878.273 754.322 876.033 754.322 873.103C754.322 870.191 754.887 867.959 756.016 866.409C757.145 864.86 758.779 864.085 760.916 864.085ZM756.47 873.103C756.47 875.181 756.691 876.808 757.135 877.983L763.85 866.665C763.144 865.864 762.166 865.464 760.916 865.464C759.525 865.464 758.436 866.094 757.649 867.355C756.863 868.598 756.47 870.514 756.47 873.103ZM760.916 880.742C762.328 880.742 763.427 880.121 764.213 878.877C764.999 877.617 765.393 875.692 765.393 873.103C765.393 870.906 765.141 869.203 764.637 867.994L757.922 879.414C758.647 880.3 759.646 880.742 760.916 880.742Z" fill="url(#paint42_linear_175_194)" fill-opacity="0.6"/>
<path d="M762.731 909.737H767.177V911.091H755.653V909.737H760.795V895.378L755.895 897.857L755.048 896.707L761.098 893.539H762.731V909.737Z" fill="url(#paint43_linear_175_194)" fill-opacity="0.6"/>
<path d="M762.731 938.936H767.177V940.29H755.653V938.936H760.795V924.577L755.895 927.055L755.048 925.906L761.098 922.738H762.731V938.936Z" fill="url(#paint44_linear_175_194)" fill-opacity="0.6"/>
<path d="M760.916 951.681C763.074 951.681 764.707 952.456 765.816 954.006C766.945 955.539 767.51 957.77 767.51 960.7C767.51 963.629 766.945 965.869 765.816 967.419C764.707 968.969 763.074 969.744 760.916 969.744C758.779 969.744 757.145 968.969 756.016 967.419C754.887 965.869 754.322 963.629 754.322 960.7C754.322 957.787 754.887 955.556 756.016 954.006C757.145 952.456 758.779 951.681 760.916 951.681ZM756.47 960.7C756.47 962.778 756.691 964.404 757.135 965.579L763.85 954.261C763.144 953.461 762.166 953.061 760.916 953.061C759.525 953.061 758.436 953.691 757.649 954.951C756.863 956.195 756.47 958.111 756.47 960.7ZM760.916 968.339C762.328 968.339 763.427 967.717 764.213 966.474C764.999 965.213 765.393 963.289 765.393 960.7C765.393 958.502 765.141 956.799 764.637 955.59L757.922 967.01C758.647 967.896 759.646 968.339 760.916 968.339Z" fill="url(#paint45_linear_175_194)" fill-opacity="0.6"/>
<path d="M760.916 980.88C763.074 980.88 764.707 981.655 765.816 983.205C766.945 984.738 767.51 986.969 767.51 989.898C767.51 992.828 766.945 995.068 765.816 996.618C764.707 998.168 763.074 998.943 760.916 998.943C758.779 998.943 757.145 998.168 756.016 996.618C754.887 995.068 754.322 992.828 754.322 989.898C754.322 986.986 754.887 984.755 756.016 983.205C757.145 981.655 758.779 980.88 760.916 980.88ZM756.47 989.898C756.47 991.976 756.691 993.603 757.135 994.778L763.85 983.46C763.144 982.66 762.166 982.259 760.916 982.259C759.525 982.259 758.436 982.89 757.649 984.15C756.863 985.393 756.47 987.309 756.47 989.898ZM760.916 997.538C762.328 997.538 763.427 996.916 764.213 995.673C764.999 994.412 765.393 992.487 765.393 989.898C765.393 987.701 765.141 985.998 764.637 984.789L757.922 996.209C758.647 997.095 759.646 997.538 760.916 997.538Z" fill="url(#paint46_linear_175_194)" fill-opacity="0.6"/>
<g opacity="0.6">
<path d="M1941.97 282.899C1944.03 282.899 1945.59 283.643 1946.65 285.131C1947.72 286.602 1948.26 288.743 1948.26 291.554C1948.26 294.366 1947.72 296.515 1946.65 298.003C1945.59 299.49 1944.03 300.234 1941.97 300.234C1939.93 300.234 1938.38 299.49 1937.3 298.003C1936.22 296.515 1935.68 294.366 1935.68 291.554C1935.68 288.759 1936.22 286.618 1937.3 285.131C1938.38 283.643 1939.93 282.899 1941.97 282.899ZM1937.73 291.554C1937.73 293.548 1937.94 295.109 1938.37 296.237L1944.77 285.376C1944.1 284.608 1943.17 284.223 1941.97 284.223C1940.65 284.223 1939.61 284.828 1938.86 286.038C1938.11 287.231 1937.73 289.07 1937.73 291.554ZM1941.97 298.885C1943.32 298.885 1944.37 298.289 1945.12 297.095C1945.87 295.886 1946.24 294.039 1946.24 291.554C1946.24 289.446 1946 287.811 1945.52 286.651L1939.12 297.61C1939.81 298.46 1940.76 298.885 1941.97 298.885Z" fill="url(#paint47_linear_175_194)"/>
<path d="M1943.7 326.71H1947.95V328.009H1936.95V326.71H1941.86V312.931L1937.18 315.309L1936.37 314.206L1942.15 311.165H1943.7V326.71Z" fill="url(#paint48_linear_175_194)"/>
<path d="M1941.97 338.941C1944.03 338.941 1945.59 339.685 1946.65 341.172C1947.72 342.643 1948.26 344.784 1948.26 347.596C1948.26 350.407 1947.72 352.557 1946.65 354.044C1945.59 355.531 1944.03 356.275 1941.97 356.275C1939.93 356.275 1938.38 355.531 1937.3 354.044C1936.22 352.557 1935.68 350.407 1935.68 347.596C1935.68 344.801 1936.22 342.659 1937.3 341.172C1938.38 339.685 1939.93 338.941 1941.97 338.941ZM1937.73 347.596C1937.73 349.59 1937.94 351.151 1938.37 352.279L1944.77 341.417C1944.1 340.649 1943.17 340.265 1941.97 340.265C1940.65 340.265 1939.61 340.87 1938.86 342.079C1938.11 343.272 1937.73 345.111 1937.73 347.596ZM1941.97 354.927C1943.32 354.927 1944.37 354.33 1945.12 353.137C1945.87 351.927 1946.24 350.08 1946.24 347.596C1946.24 345.487 1946 343.853 1945.52 342.692L1939.12 353.652C1939.81 354.502 1940.76 354.927 1941.97 354.927Z" fill="url(#paint49_linear_175_194)"/>
<path d="M1943.7 382.751H1947.95V384.051H1936.95V382.751H1941.86V368.972L1937.18 371.35L1936.37 370.247L1942.15 367.207H1943.7V382.751Z" fill="url(#paint50_linear_175_194)"/>
<path d="M1943.7 410.772H1947.95V412.072H1936.95V410.772H1941.86V396.993L1937.18 399.371L1936.37 398.268L1942.15 395.228H1943.7V410.772Z" fill="url(#paint51_linear_175_194)"/>
<path d="M1941.97 423.003C1944.03 423.003 1945.59 423.747 1946.65 425.234C1947.72 426.705 1948.26 428.847 1948.26 431.658C1948.26 434.469 1947.72 436.619 1946.65 438.106C1945.59 439.594 1944.03 440.337 1941.97 440.337C1939.93 440.337 1938.38 439.594 1937.3 438.106C1936.22 436.619 1935.68 434.469 1935.68 431.658C1935.68 428.863 1936.22 426.722 1937.3 425.234C1938.38 423.747 1939.93 423.003 1941.97 423.003ZM1937.73 431.658C1937.73 433.652 1937.94 435.213 1938.37 436.341L1944.77 425.479C1944.1 424.711 1943.17 424.327 1941.97 424.327C1940.65 424.327 1939.61 424.932 1938.86 426.141C1938.11 427.335 1937.73 429.173 1937.73 431.658ZM1941.97 438.989C1943.32 438.989 1944.37 438.392 1945.12 437.199C1945.87 435.99 1946.24 434.143 1946.24 431.658C1946.24 429.549 1946 427.915 1945.52 426.754L1939.12 437.714C1939.81 438.564 1940.76 438.989 1941.97 438.989Z" fill="url(#paint52_linear_175_194)"/>
<path d="M1943.7 466.814H1947.95V468.113H1936.95V466.814H1941.86V453.034L1937.18 455.413L1936.37 454.309L1942.15 451.269H1943.7V466.814Z" fill="url(#paint53_linear_175_194)"/>
<path d="M1941.97 479.045C1944.03 479.045 1945.59 479.788 1946.65 481.276C1947.72 482.747 1948.26 484.888 1948.26 487.699C1948.26 490.511 1947.72 492.66 1946.65 494.148C1945.59 495.635 1944.03 496.379 1941.97 496.379C1939.93 496.379 1938.38 495.635 1937.3 494.148C1936.22 492.66 1935.68 490.511 1935.68 487.699C1935.68 484.904 1936.22 482.763 1937.3 481.276C1938.38 479.788 1939.93 479.045 1941.97 479.045ZM1937.73 487.699C1937.73 489.694 1937.94 491.255 1938.37 492.382L1944.77 481.521C1944.1 480.753 1943.17 480.369 1941.97 480.369C1940.65 480.369 1939.61 480.973 1938.86 482.183C1938.11 483.376 1937.73 485.215 1937.73 487.699ZM1941.97 495.03C1943.32 495.03 1944.37 494.434 1945.12 493.241C1945.87 492.031 1946.24 490.184 1946.24 487.699C1946.24 485.591 1946 483.956 1945.52 482.796L1939.12 493.755C1939.81 494.605 1940.76 495.03 1941.97 495.03Z" fill="url(#paint54_linear_175_194)"/>
<path d="M1941.97 507.065C1944.03 507.065 1945.59 507.809 1946.65 509.296C1947.72 510.768 1948.26 512.909 1948.26 515.72C1948.26 518.532 1947.72 520.681 1946.65 522.168C1945.59 523.656 1944.03 524.4 1941.97 524.4C1939.93 524.4 1938.38 523.656 1937.3 522.168C1936.22 520.681 1935.68 518.532 1935.68 515.72C1935.68 512.925 1936.22 510.784 1937.3 509.296C1938.38 507.809 1939.93 507.065 1941.97 507.065ZM1937.73 515.72C1937.73 517.714 1937.94 519.275 1938.37 520.403L1944.77 509.542C1944.1 508.773 1943.17 508.389 1941.97 508.389C1940.65 508.389 1939.61 508.994 1938.86 510.204C1938.11 511.397 1937.73 513.236 1937.73 515.72ZM1941.97 523.051C1943.32 523.051 1944.37 522.455 1945.12 521.261C1945.87 520.052 1946.24 518.205 1946.24 515.72C1946.24 513.612 1946 511.977 1945.52 510.817L1939.12 521.776C1939.81 522.626 1940.76 523.051 1941.97 523.051Z" fill="url(#paint55_linear_175_194)"/>
<path d="M1943.7 550.876H1947.95V552.175H1936.95V550.876H1941.86V537.097L1937.18 539.475L1936.37 538.371L1942.15 535.331H1943.7V550.876Z" fill="url(#paint56_linear_175_194)"/>
<path d="M1941.97 563.107C1944.03 563.107 1945.59 563.85 1946.65 565.338C1947.72 566.809 1948.26 568.95 1948.26 571.762C1948.26 574.573 1947.72 576.722 1946.65 578.21C1945.59 579.697 1944.03 580.441 1941.97 580.441C1939.93 580.441 1938.38 579.697 1937.3 578.21C1936.22 576.722 1935.68 574.573 1935.68 571.762C1935.68 568.967 1936.22 566.825 1937.3 565.338C1938.38 563.85 1939.93 563.107 1941.97 563.107ZM1937.73 571.762C1937.73 573.756 1937.94 575.317 1938.37 576.445L1944.77 565.583C1944.1 564.815 1943.17 564.431 1941.97 564.431C1940.65 564.431 1939.61 565.036 1938.86 566.245C1938.11 567.438 1937.73 569.277 1937.73 571.762ZM1941.97 579.093C1943.32 579.093 1944.37 578.496 1945.12 577.303C1945.87 576.093 1946.24 574.246 1946.24 571.762C1946.24 569.653 1946 568.019 1945.52 566.858L1939.12 577.818C1939.81 578.668 1940.76 579.093 1941.97 579.093Z" fill="url(#paint57_linear_175_194)"/>
<path d="M1943.7 606.917H1947.95V608.217H1936.95V606.917H1941.86V593.138L1937.18 595.516L1936.37 594.413L1942.15 591.373H1943.7V606.917Z" fill="url(#paint58_linear_175_194)"/>
<path d="M1943.7 634.938H1947.95V636.237H1936.95V634.938H1941.86V621.159L1937.18 623.537L1936.37 622.434L1942.15 619.393H1943.7V634.938Z" fill="url(#paint59_linear_175_194)"/>
<path d="M1995.56 338.941C1997.62 338.941 1999.18 339.685 2000.24 341.172C2001.32 342.643 2001.86 344.784 2001.86 347.596C2001.86 350.407 2001.32 352.557 2000.24 354.044C1999.18 355.531 1997.62 356.275 1995.56 356.275C1993.53 356.275 1991.97 355.531 1990.89 354.044C1989.81 352.557 1989.27 350.407 1989.27 347.596C1989.27 344.801 1989.81 342.659 1990.89 341.172C1991.97 339.685 1993.53 338.941 1995.56 338.941ZM1991.32 347.596C1991.32 349.59 1991.53 351.151 1991.96 352.279L1998.36 341.417C1997.69 340.649 1996.76 340.265 1995.56 340.265C1994.24 340.265 1993.2 340.87 1992.45 342.079C1991.7 343.272 1991.32 345.111 1991.32 347.596ZM1995.56 354.927C1996.91 354.927 1997.96 354.33 1998.71 353.137C1999.46 351.927 1999.84 350.08 1999.84 347.596C1999.84 345.487 1999.59 343.853 1999.11 342.692L1992.71 353.652C1993.4 354.502 1994.35 354.927 1995.56 354.927Z" fill="url(#paint60_linear_175_194)"/>
<path d="M1997.3 382.751H2001.54V384.051H1990.54V382.751H1995.45V368.972L1990.77 371.35L1989.97 370.247L1995.74 367.207H1997.3V382.751Z" fill="url(#paint61_linear_175_194)"/>
<path d="M1995.56 394.982C1997.62 394.982 1999.18 395.726 2000.24 397.214C2001.32 398.685 2001.86 400.826 2001.86 403.637C2001.86 406.449 2001.32 408.598 2000.24 410.086C1999.18 411.573 1997.62 412.317 1995.56 412.317C1993.53 412.317 1991.97 411.573 1990.89 410.086C1989.81 408.598 1989.27 406.449 1989.27 403.637C1989.27 400.842 1989.81 398.701 1990.89 397.214C1991.97 395.726 1993.53 394.982 1995.56 394.982ZM1991.32 403.637C1991.32 405.631 1991.53 407.192 1991.96 408.32L1998.36 397.459C1997.69 396.69 1996.76 396.306 1995.56 396.306C1994.24 396.306 1993.2 396.911 1992.45 398.121C1991.7 399.314 1991.32 401.153 1991.32 403.637ZM1995.56 410.968C1996.91 410.968 1997.96 410.372 1998.71 409.178C1999.46 407.969 1999.84 406.122 1999.84 403.637C1999.84 401.529 1999.59 399.894 1999.11 398.734L1992.71 409.693C1993.4 410.543 1994.35 410.968 1995.56 410.968Z" fill="url(#paint62_linear_175_194)"/>
<path d="M1995.56 423.003C1997.62 423.003 1999.18 423.747 2000.24 425.234C2001.32 426.705 2001.86 428.847 2001.86 431.658C2001.86 434.469 2001.32 436.619 2000.24 438.106C1999.18 439.594 1997.62 440.337 1995.56 440.337C1993.53 440.337 1991.97 439.594 1990.89 438.106C1989.81 436.619 1989.27 434.469 1989.27 431.658C1989.27 428.863 1989.81 426.722 1990.89 425.234C1991.97 423.747 1993.53 423.003 1995.56 423.003ZM1991.32 431.658C1991.32 433.652 1991.53 435.213 1991.96 436.341L1998.36 425.479C1997.69 424.711 1996.76 424.327 1995.56 424.327C1994.24 424.327 1993.2 424.932 1992.45 426.141C1991.7 427.335 1991.32 429.173 1991.32 431.658ZM1995.56 438.989C1996.91 438.989 1997.96 438.392 1998.71 437.199C1999.46 435.99 1999.84 434.143 1999.84 431.658C1999.84 429.549 1999.59 427.915 1999.11 426.754L1992.71 437.714C1993.4 438.564 1994.35 438.989 1995.56 438.989Z" fill="url(#paint63_linear_175_194)"/>
<path d="M1997.3 466.814H2001.54V468.113H1990.54V466.814H1995.45V453.034L1990.77 455.413L1989.97 454.309L1995.74 451.269H1997.3V466.814Z" fill="url(#paint64_linear_175_194)"/>
<path d="M1995.56 479.045C1997.62 479.045 1999.18 479.788 2000.24 481.276C2001.32 482.747 2001.86 484.888 2001.86 487.699C2001.86 490.511 2001.32 492.66 2000.24 494.148C1999.18 495.635 1997.62 496.379 1995.56 496.379C1993.53 496.379 1991.97 495.635 1990.89 494.148C1989.81 492.66 1989.27 490.511 1989.27 487.699C1989.27 484.904 1989.81 482.763 1990.89 481.276C1991.97 479.788 1993.53 479.045 1995.56 479.045ZM1991.32 487.699C1991.32 489.694 1991.53 491.255 1991.96 492.382L1998.36 481.521C1997.69 480.753 1996.76 480.369 1995.56 480.369C1994.24 480.369 1993.2 480.973 1992.45 482.183C1991.7 483.376 1991.32 485.215 1991.32 487.699ZM1995.56 495.03C1996.91 495.03 1997.96 494.434 1998.71 493.241C1999.46 492.031 1999.84 490.184 1999.84 487.699C1999.84 485.591 1999.59 483.956 1999.11 482.796L1992.71 493.755C1993.4 494.605 1994.35 495.03 1995.56 495.03Z" fill="url(#paint65_linear_175_194)"/>
<path d="M1997.3 522.855H2001.54V524.154H1990.54V522.855H1995.45V509.076L1990.77 511.454L1989.97 510.351L1995.74 507.31H1997.3V522.855Z" fill="url(#paint66_linear_175_194)"/>
<path d="M1995.56 535.086C1997.62 535.086 1999.18 535.83 2000.24 537.317C2001.32 538.788 2001.86 540.93 2001.86 543.741C2001.86 546.552 2001.32 548.702 2000.24 550.189C1999.18 551.677 1997.62 552.42 1995.56 552.42C1993.53 552.42 1991.97 551.677 1990.89 550.189C1989.81 548.702 1989.27 546.552 1989.27 543.741C1989.27 540.946 1989.81 538.805 1990.89 537.317C1991.97 535.83 1993.53 535.086 1995.56 535.086ZM1991.32 543.741C1991.32 545.735 1991.53 547.296 1991.96 548.424L1998.36 537.562C1997.69 536.794 1996.76 536.41 1995.56 536.41C1994.24 536.41 1993.2 537.015 1992.45 538.224C1991.7 539.418 1991.32 541.256 1991.32 543.741ZM1995.56 551.072C1996.91 551.072 1997.96 550.475 1998.71 549.282C1999.46 548.072 1999.84 546.225 1999.84 543.741C1999.84 541.632 1999.59 539.998 1999.11 538.837L1992.71 549.797C1993.4 550.647 1994.35 551.072 1995.56 551.072Z" fill="url(#paint67_linear_175_194)"/>
<path d="M1995.56 563.107C1997.62 563.107 1999.18 563.85 2000.24 565.338C2001.32 566.809 2001.86 568.95 2001.86 571.762C2001.86 574.573 2001.32 576.722 2000.24 578.21C1999.18 579.697 1997.62 580.441 1995.56 580.441C1993.53 580.441 1991.97 579.697 1990.89 578.21C1989.81 576.722 1989.27 574.573 1989.27 571.762C1989.27 568.967 1989.81 566.825 1990.89 565.338C1991.97 563.85 1993.53 563.107 1995.56 563.107ZM1991.32 571.762C1991.32 573.756 1991.53 575.317 1991.96 576.445L1998.36 565.583C1997.69 564.815 1996.76 564.431 1995.56 564.431C1994.24 564.431 1993.2 565.036 1992.45 566.245C1991.7 567.438 1991.32 569.277 1991.32 571.762ZM1995.56 579.093C1996.91 579.093 1997.96 578.496 1998.71 577.303C1999.46 576.093 1999.84 574.246 1999.84 571.762C1999.84 569.653 1999.59 568.019 1999.11 566.858L1992.71 577.818C1993.4 578.668 1994.35 579.093 1995.56 579.093Z" fill="url(#paint68_linear_175_194)"/>
<path d="M1997.3 606.917H2001.54V608.217H1990.54V606.917H1995.45V593.138L1990.77 595.516L1989.97 594.413L1995.74 591.373H1997.3V606.917Z" fill="url(#paint69_linear_175_194)"/>
<path d="M1995.56 619.148C1997.62 619.148 1999.18 619.892 2000.24 621.379C2001.32 622.85 2001.86 624.992 2001.86 627.803C2001.86 630.615 2001.32 632.764 2000.24 634.251C1999.18 635.739 1997.62 636.483 1995.56 636.483C1993.53 636.483 1991.97 635.739 1990.89 634.251C1989.81 632.764 1989.27 630.615 1989.27 627.803C1989.27 625.008 1989.81 622.867 1990.89 621.379C1991.97 619.892 1993.53 619.148 1995.56 619.148ZM1991.32 627.803C1991.32 629.797 1991.53 631.358 1991.96 632.486L1998.36 621.625C1997.69 620.856 1996.76 620.472 1995.56 620.472C1994.24 620.472 1993.2 621.077 1992.45 622.287C1991.7 623.48 1991.32 625.319 1991.32 627.803ZM1995.56 635.134C1996.91 635.134 1997.96 634.537 1998.71 633.344C1999.46 632.135 1999.84 630.288 1999.84 627.803C1999.84 625.695 1999.59 624.06 1999.11 622.9L1992.71 633.859C1993.4 634.709 1994.35 635.134 1995.56 635.134Z" fill="url(#paint70_linear_175_194)"/>
<path d="M1997.3 662.959H2001.54V664.258H1990.54V662.959H1995.45V649.179L1990.77 651.558L1989.97 650.454L1995.74 647.414H1997.3V662.959Z" fill="url(#paint71_linear_175_194)"/>
<path d="M1997.3 690.979H2001.54V692.279H1990.54V690.979H1995.45V677.2L1990.77 679.578L1989.97 678.475L1995.74 675.435H1997.3V690.979Z" fill="url(#paint72_linear_175_194)"/>
<path d="M1915.18 366.962C1917.24 366.962 1918.79 367.705 1919.85 369.193C1920.93 370.664 1921.47 372.805 1921.47 375.617C1921.47 378.428 1920.93 380.577 1919.85 382.065C1918.79 383.552 1917.24 384.296 1915.18 384.296C1913.14 384.296 1911.58 383.552 1910.5 382.065C1909.42 380.577 1908.89 378.428 1908.89 375.617C1908.89 372.821 1909.42 370.68 1910.5 369.193C1911.58 367.705 1913.14 366.962 1915.18 366.962ZM1910.93 375.617C1910.93 377.611 1911.15 379.172 1911.57 380.299L1917.98 369.438C1917.3 368.67 1916.37 368.286 1915.18 368.286C1913.85 368.286 1912.81 368.89 1912.06 370.1C1911.31 371.293 1910.93 373.132 1910.93 375.617ZM1915.18 382.947C1916.52 382.947 1917.57 382.351 1918.32 381.158C1919.07 379.948 1919.45 378.101 1919.45 375.617C1919.45 373.508 1919.21 371.873 1918.73 370.713L1912.32 381.673C1913.01 382.522 1913.96 382.947 1915.18 382.947Z" fill="url(#paint73_linear_175_194)"/>
<path d="M1915.18 394.982C1917.24 394.982 1918.79 395.726 1919.85 397.214C1920.93 398.685 1921.47 400.826 1921.47 403.637C1921.47 406.449 1920.93 408.598 1919.85 410.086C1918.79 411.573 1917.24 412.317 1915.18 412.317C1913.14 412.317 1911.58 411.573 1910.5 410.086C1909.42 408.598 1908.89 406.449 1908.89 403.637C1908.89 400.842 1909.42 398.701 1910.5 397.214C1911.58 395.726 1913.14 394.982 1915.18 394.982ZM1910.93 403.637C1910.93 405.631 1911.15 407.192 1911.57 408.32L1917.98 397.459C1917.3 396.69 1916.37 396.306 1915.18 396.306C1913.85 396.306 1912.81 396.911 1912.06 398.121C1911.31 399.314 1910.93 401.153 1910.93 403.637ZM1915.18 410.968C1916.52 410.968 1917.57 410.372 1918.32 409.178C1919.07 407.969 1919.45 406.122 1919.45 403.637C1919.45 401.529 1919.21 399.894 1918.73 398.734L1912.32 409.693C1913.01 410.543 1913.96 410.968 1915.18 410.968Z" fill="url(#paint74_linear_175_194)"/>
<path d="M1916.91 438.793H1921.15V440.092H1910.16V438.793H1915.06V425.014L1910.39 427.392L1909.58 426.289L1915.35 423.248H1916.91V438.793Z" fill="url(#paint75_linear_175_194)"/>
<path d="M1915.18 451.024C1917.24 451.024 1918.79 451.768 1919.85 453.255C1920.93 454.726 1921.47 456.867 1921.47 459.679C1921.47 462.49 1920.93 464.64 1919.85 466.127C1918.79 467.614 1917.24 468.358 1915.18 468.358C1913.14 468.358 1911.58 467.614 1910.5 466.127C1909.42 464.64 1908.89 462.49 1908.89 459.679C1908.89 456.884 1909.42 454.742 1910.5 453.255C1911.58 451.768 1913.14 451.024 1915.18 451.024ZM1910.93 459.679C1910.93 461.673 1911.15 463.234 1911.57 464.362L1917.98 453.5C1917.3 452.732 1916.37 452.348 1915.18 452.348C1913.85 452.348 1912.81 452.953 1912.06 454.162C1911.31 455.355 1910.93 457.194 1910.93 459.679ZM1915.18 467.01C1916.52 467.01 1917.57 466.413 1918.32 465.22C1919.07 464.01 1919.45 462.163 1919.45 459.679C1919.45 457.57 1919.21 455.936 1918.73 454.775L1912.32 465.735C1913.01 466.585 1913.96 467.01 1915.18 467.01Z" fill="url(#paint76_linear_175_194)"/>
<path d="M1916.91 494.834H1921.15V496.134H1910.16V494.834H1915.06V481.055L1910.39 483.433L1909.58 482.33L1915.35 479.29H1916.91V494.834Z" fill="url(#paint77_linear_175_194)"/>
<path d="M1916.91 522.855H1921.15V524.154H1910.16V522.855H1915.06V509.076L1910.39 511.454L1909.58 510.351L1915.35 507.31H1916.91V522.855Z" fill="url(#paint78_linear_175_194)"/>
<path d="M1970.5 326.71H1974.74V328.009H1963.75V326.71H1968.65V312.931L1963.98 315.309L1963.17 314.206L1968.94 311.165H1970.5V326.71Z" fill="url(#paint79_linear_175_194)"/>
<path d="M1968.77 338.941C1970.83 338.941 1972.39 339.685 1973.44 341.172C1974.52 342.643 1975.06 344.784 1975.06 347.596C1975.06 350.407 1974.52 352.557 1973.44 354.044C1972.39 355.531 1970.83 356.275 1968.77 356.275C1966.73 356.275 1965.17 355.531 1964.09 354.044C1963.02 352.557 1962.48 350.407 1962.48 347.596C1962.48 344.801 1963.02 342.659 1964.09 341.172C1965.17 339.685 1966.73 338.941 1968.77 338.941ZM1964.53 347.596C1964.53 349.59 1964.74 351.151 1965.16 352.279L1971.57 341.417C1970.89 340.649 1969.96 340.265 1968.77 340.265C1967.44 340.265 1966.4 340.87 1965.65 342.079C1964.9 343.272 1964.53 345.111 1964.53 347.596ZM1968.77 354.927C1970.12 354.927 1971.16 354.33 1971.91 353.137C1972.66 351.927 1973.04 350.08 1973.04 347.596C1973.04 345.487 1972.8 343.853 1972.32 342.692L1965.91 353.652C1966.6 354.502 1967.56 354.927 1968.77 354.927Z" fill="url(#paint80_linear_175_194)"/>
<path d="M1970.5 382.751H1974.74V384.051H1963.75V382.751H1968.65V368.972L1963.98 371.35L1963.17 370.247L1968.94 367.207H1970.5V382.751Z" fill="url(#paint81_linear_175_194)"/>
<path d="M1970.5 410.772H1974.74V412.072H1963.75V410.772H1968.65V396.993L1963.98 399.371L1963.17 398.268L1968.94 395.228H1970.5V410.772Z" fill="url(#paint82_linear_175_194)"/>
<path d="M1968.77 423.003C1970.83 423.003 1972.39 423.747 1973.44 425.234C1974.52 426.705 1975.06 428.847 1975.06 431.658C1975.06 434.469 1974.52 436.619 1973.44 438.106C1972.39 439.594 1970.83 440.337 1968.77 440.337C1966.73 440.337 1965.17 439.594 1964.09 438.106C1963.02 436.619 1962.48 434.469 1962.48 431.658C1962.48 428.863 1963.02 426.722 1964.09 425.234C1965.17 423.747 1966.73 423.003 1968.77 423.003ZM1964.53 431.658C1964.53 433.652 1964.74 435.213 1965.16 436.341L1971.57 425.479C1970.89 424.711 1969.96 424.327 1968.77 424.327C1967.44 424.327 1966.4 424.932 1965.65 426.141C1964.9 427.335 1964.53 429.173 1964.53 431.658ZM1968.77 438.989C1970.12 438.989 1971.16 438.392 1971.91 437.199C1972.66 435.99 1973.04 434.143 1973.04 431.658C1973.04 429.549 1972.8 427.915 1972.32 426.754L1965.91 437.714C1966.6 438.564 1967.56 438.989 1968.77 438.989Z" fill="url(#paint83_linear_175_194)"/>
<path d="M1970.5 466.814H1974.74V468.113H1963.75V466.814H1968.65V453.034L1963.98 455.413L1963.17 454.309L1968.94 451.269H1970.5V466.814Z" fill="url(#paint84_linear_175_194)"/>
<path d="M1970.5 494.834H1974.74V496.134H1963.75V494.834H1968.65V481.055L1963.98 483.433L1963.17 482.33L1968.94 479.29H1970.5V494.834Z" fill="url(#paint85_linear_175_194)"/>
<path d="M1968.77 507.065C1970.83 507.065 1972.39 507.809 1973.44 509.296C1974.52 510.768 1975.06 512.909 1975.06 515.72C1975.06 518.532 1974.52 520.681 1973.44 522.168C1972.39 523.656 1970.83 524.4 1968.77 524.4C1966.73 524.4 1965.17 523.656 1964.09 522.168C1963.02 520.681 1962.48 518.532 1962.48 515.72C1962.48 512.925 1963.02 510.784 1964.09 509.296C1965.17 507.809 1966.73 507.065 1968.77 507.065ZM1964.53 515.72C1964.53 517.714 1964.74 519.275 1965.16 520.403L1971.57 509.542C1970.89 508.773 1969.96 508.389 1968.77 508.389C1967.44 508.389 1966.4 508.994 1965.65 510.204C1964.9 511.397 1964.53 513.236 1964.53 515.72ZM1968.77 523.051C1970.12 523.051 1971.16 522.455 1971.91 521.261C1972.66 520.052 1973.04 518.205 1973.04 515.72C1973.04 513.612 1972.8 511.977 1972.32 510.817L1965.91 521.776C1966.6 522.626 1967.56 523.051 1968.77 523.051Z" fill="url(#paint86_linear_175_194)"/>
<path d="M1970.5 550.876H1974.74V552.175H1963.75V550.876H1968.65V537.097L1963.98 539.475L1963.17 538.371L1968.94 535.331H1970.5V550.876Z" fill="url(#paint87_linear_175_194)"/>
<path d="M1968.77 563.107C1970.83 563.107 1972.39 563.85 1973.44 565.338C1974.52 566.809 1975.06 568.95 1975.06 571.762C1975.06 574.573 1974.52 576.722 1973.44 578.21C1972.39 579.697 1970.83 580.441 1968.77 580.441C1966.73 580.441 1965.17 579.697 1964.09 578.21C1963.02 576.722 1962.48 574.573 1962.48 571.762C1962.48 568.967 1963.02 566.825 1964.09 565.338C1965.17 563.85 1966.73 563.107 1968.77 563.107ZM1964.53 571.762C1964.53 573.756 1964.74 575.317 1965.16 576.445L1971.57 565.583C1970.89 564.815 1969.96 564.431 1968.77 564.431C1967.44 564.431 1966.4 565.036 1965.65 566.245C1964.9 567.438 1964.53 569.277 1964.53 571.762ZM1968.77 579.093C1970.12 579.093 1971.16 578.496 1971.91 577.303C1972.66 576.093 1973.04 574.246 1973.04 571.762C1973.04 569.653 1972.8 568.019 1972.32 566.858L1965.91 577.818C1966.6 578.668 1967.56 579.093 1968.77 579.093Z" fill="url(#paint88_linear_175_194)"/>
<path d="M2022.36 310.92C2024.42 310.92 2025.98 311.664 2027.03 313.151C2028.11 314.622 2028.65 316.764 2028.65 319.575C2028.65 322.386 2028.11 324.536 2027.03 326.023C2025.98 327.511 2024.42 328.254 2022.36 328.254C2020.32 328.254 2018.76 327.511 2017.69 326.023C2016.61 324.536 2016.07 322.386 2016.07 319.575C2016.07 316.78 2016.61 314.639 2017.69 313.151C2018.76 311.664 2020.32 310.92 2022.36 310.92ZM2018.12 319.575C2018.12 321.569 2018.33 323.13 2018.75 324.258L2025.16 313.396C2024.49 312.628 2023.55 312.244 2022.36 312.244C2021.03 312.244 2019.99 312.849 2019.24 314.058C2018.49 315.252 2018.12 317.091 2018.12 319.575ZM2022.36 326.906C2023.71 326.906 2024.76 326.309 2025.51 325.116C2026.26 323.907 2026.63 322.06 2026.63 319.575C2026.63 317.466 2026.39 315.832 2025.91 314.671L2019.5 325.631C2020.2 326.481 2021.15 326.906 2022.36 326.906Z" fill="url(#paint89_linear_175_194)"/>
<path d="M2024.09 354.731H2028.33V356.03H2017.34V354.731H2022.24V340.951L2017.57 343.33L2016.76 342.226L2022.53 339.186H2024.09V354.731Z" fill="url(#paint90_linear_175_194)"/>
<path d="M2024.09 382.751H2028.33V384.051H2017.34V382.751H2022.24V368.972L2017.57 371.35L2016.76 370.247L2022.53 367.207H2024.09V382.751Z" fill="url(#paint91_linear_175_194)"/>
<path d="M2022.36 394.982C2024.42 394.982 2025.98 395.726 2027.03 397.214C2028.11 398.685 2028.65 400.826 2028.65 403.637C2028.65 406.449 2028.11 408.598 2027.03 410.086C2025.98 411.573 2024.42 412.317 2022.36 412.317C2020.32 412.317 2018.76 411.573 2017.69 410.086C2016.61 408.598 2016.07 406.449 2016.07 403.637C2016.07 400.842 2016.61 398.701 2017.69 397.214C2018.76 395.726 2020.32 394.982 2022.36 394.982ZM2018.12 403.637C2018.12 405.631 2018.33 407.192 2018.75 408.32L2025.16 397.459C2024.49 396.69 2023.55 396.306 2022.36 396.306C2021.03 396.306 2019.99 396.911 2019.24 398.121C2018.49 399.314 2018.12 401.153 2018.12 403.637ZM2022.36 410.968C2023.71 410.968 2024.76 410.372 2025.51 409.178C2026.26 407.969 2026.63 406.122 2026.63 403.637C2026.63 401.529 2026.39 399.894 2025.91 398.734L2019.5 409.693C2020.2 410.543 2021.15 410.968 2022.36 410.968Z" fill="url(#paint92_linear_175_194)"/>
<path d="M2022.36 423.003C2024.42 423.003 2025.98 423.747 2027.03 425.234C2028.11 426.705 2028.65 428.847 2028.65 431.658C2028.65 434.469 2028.11 436.619 2027.03 438.106C2025.98 439.594 2024.42 440.337 2022.36 440.337C2020.32 440.337 2018.76 439.594 2017.69 438.106C2016.61 436.619 2016.07 434.469 2016.07 431.658C2016.07 428.863 2016.61 426.722 2017.69 425.234C2018.76 423.747 2020.32 423.003 2022.36 423.003ZM2018.12 431.658C2018.12 433.652 2018.33 435.213 2018.75 436.341L2025.16 425.479C2024.49 424.711 2023.55 424.327 2022.36 424.327C2021.03 424.327 2019.99 424.932 2019.24 426.141C2018.49 427.335 2018.12 429.173 2018.12 431.658ZM2022.36 438.989C2023.71 438.989 2024.76 438.392 2025.51 437.199C2026.26 435.99 2026.63 434.143 2026.63 431.658C2026.63 429.549 2026.39 427.915 2025.91 426.754L2019.5 437.714C2020.2 438.564 2021.15 438.989 2022.36 438.989Z" fill="url(#paint93_linear_175_194)"/>
</g>
<defs>
<filter id="filter0_f_175_194" x="0.809998" y="0.728943" width="2735.38" height="1660.94" filterUnits="userSpaceOnUse" color-interpolation-filters="sRGB">
<feFlood flood-opacity="0" result="BackgroundImageFix"/>
<feBlend mode="normal" in="SourceGraphic" in2="BackgroundImageFix" result="shape"/>
<feGaussianBlur stdDeviation="200.095" result="effect1_foregroundBlur_175_194"/>
</filter>
<linearGradient id="paint0_linear_175_194" x1="704.742" y1="834.886" x2="704.742" y2="1217.69" gradientUnits="userSpaceOnUse">
<stop stop-color="white"/>
<stop offset="1" stop-color="#F7DD43" stop-opacity="0"/>
</linearGradient>
<linearGradient id="paint1_linear_175_194" x1="704.742" y1="834.886" x2="704.742" y2="1217.69" gradientUnits="userSpaceOnUse">
<stop stop-color="white"/>
<stop offset="1" stop-color="#F7DD43" stop-opacity="0"/>
</linearGradient>
<linearGradient id="paint2_linear_175_194" x1="704.742" y1="834.886" x2="704.742" y2="1217.69" gradientUnits="userSpaceOnUse">
<stop stop-color="white"/>
<stop offset="1" stop-color="#F7DD43" stop-opacity="0"/>
</linearGradient>
<linearGradient id="paint3_linear_175_194" x1="704.742" y1="834.886" x2="704.742" y2="1217.69" gradientUnits="userSpaceOnUse">
<stop stop-color="white"/>
<stop offset="1" stop-color="#F7DD43" stop-opacity="0"/>
</linearGradient>
<linearGradient id="paint4_linear_175_194" x1="704.742" y1="834.886" x2="704.742" y2="1217.69" gradientUnits="userSpaceOnUse">
<stop stop-color="white"/>
<stop offset="1" stop-color="#F7DD43" stop-opacity="0"/>
</linearGradient>
<linearGradient id="paint5_linear_175_194" x1="704.742" y1="834.886" x2="704.742" y2="1217.69" gradientUnits="userSpaceOnUse">
<stop stop-color="white"/>
<stop offset="1" stop-color="#F7DD43" stop-opacity="0"/>
</linearGradient>
<linearGradient id="paint6_linear_175_194" x1="704.742" y1="834.886" x2="704.742" y2="1217.69" gradientUnits="userSpaceOnUse">
<stop stop-color="white"/>
<stop offset="1" stop-color="#F7DD43" stop-opacity="0"/>
</linearGradient>
<linearGradient id="paint7_linear_175_194" x1="704.742" y1="834.886" x2="704.742" y2="1217.69" gradientUnits="userSpaceOnUse">
<stop stop-color="white"/>
<stop offset="1" stop-color="#F7DD43" stop-opacity="0"/>
</linearGradient>
<linearGradient id="paint8_linear_175_194" x1="704.742" y1="834.886" x2="704.742" y2="1217.69" gradientUnits="userSpaceOnUse">
<stop stop-color="white"/>
<stop offset="1" stop-color="#F7DD43" stop-opacity="0"/>
</linearGradient>
<linearGradient id="paint9_linear_175_194" x1="704.742" y1="834.886" x2="704.742" y2="1217.69" gradientUnits="userSpaceOnUse">
<stop stop-color="white"/>
<stop offset="1" stop-color="#F7DD43" stop-opacity="0"/>
</linearGradient>
<linearGradient id="paint10_linear_175_194" x1="704.742" y1="834.886" x2="704.742" y2="1217.69" gradientUnits="userSpaceOnUse">
<stop stop-color="white"/>
<stop offset="1" stop-color="#F7DD43" stop-opacity="0"/>
</linearGradient>
<linearGradient id="paint11_linear_175_194" x1="704.742" y1="834.886" x2="704.742" y2="1217.69" gradientUnits="userSpaceOnUse">
<stop stop-color="white"/>
<stop offset="1" stop-color="#F7DD43" stop-opacity="0"/>
</linearGradient>
<linearGradient id="paint12_linear_175_194" x1="704.742" y1="834.886" x2="704.742" y2="1217.69" gradientUnits="userSpaceOnUse">
<stop stop-color="white"/>
<stop offset="1" stop-color="#F7DD43" stop-opacity="0"/>
</linearGradient>
<linearGradient id="paint13_linear_175_194" x1="704.742" y1="834.886" x2="704.742" y2="1217.69" gradientUnits="userSpaceOnUse">
<stop stop-color="white"/>
<stop offset="1" stop-color="#F7DD43" stop-opacity="0"/>
</linearGradient>
<linearGradient id="paint14_linear_175_194" x1="704.742" y1="834.886" x2="704.742" y2="1217.69" gradientUnits="userSpaceOnUse">
<stop stop-color="white"/>
<stop offset="1" stop-color="#F7DD43" stop-opacity="0"/>
</linearGradient>
<linearGradient id="paint15_linear_175_194" x1="704.742" y1="834.886" x2="704.742" y2="1217.69" gradientUnits="userSpaceOnUse">
<stop stop-color="white"/>
<stop offset="1" stop-color="#F7DD43" stop-opacity="0"/>
</linearGradient>
<linearGradient id="paint16_linear_175_194" x1="704.742" y1="834.886" x2="704.742" y2="1217.69" gradientUnits="userSpaceOnUse">
<stop stop-color="white"/>
<stop offset="1" stop-color="#F7DD43" stop-opacity="0"/>
</linearGradient>
<linearGradient id="paint17_linear_175_194" x1="704.742" y1="834.886" x2="704.742" y2="1217.69" gradientUnits="userSpaceOnUse">
<stop stop-color="white"/>
<stop offset="1" stop-color="#F7DD43" stop-opacity="0"/>
</linearGradient>
<linearGradient id="paint18_linear_175_194" x1="704.742" y1="834.886" x2="704.742" y2="1217.69" gradientUnits="userSpaceOnUse">
<stop stop-color="white"/>
<stop offset="1" stop-color="#F7DD43" stop-opacity="0"/>
</linearGradient>
<linearGradient id="paint19_linear_175_194" x1="704.742" y1="834.886" x2="704.742" y2="1217.69" gradientUnits="userSpaceOnUse">
<stop stop-color="white"/>
<stop offset="1" stop-color="#F7DD43" stop-opacity="0"/>
</linearGradient>
<linearGradient id="paint20_linear_175_194" x1="704.742" y1="834.886" x2="704.742" y2="1217.69" gradientUnits="userSpaceOnUse">
<stop stop-color="white"/>
<stop offset="1" stop-color="#F7DD43" stop-opacity="0"/>
</linearGradient>
<linearGradient id="paint21_linear_175_194" x1="704.742" y1="834.886" x2="704.742" y2="1217.69" gradientUnits="userSpaceOnUse">
<stop stop-color="white"/>
<stop offset="1" stop-color="#F7DD43" stop-opacity="0"/>
</linearGradient>
<linearGradient id="paint22_linear_175_194" x1="704.742" y1="834.886" x2="704.742" y2="1217.69" gradientUnits="userSpaceOnUse">
<stop stop-color="white"/>
<stop offset="1" stop-color="#F7DD43" stop-opacity="0"/>
</linearGradient>
<linearGradient id="paint23_linear_175_194" x1="704.742" y1="834.886" x2="704.742" y2="1217.69" gradientUnits="userSpaceOnUse">
<stop stop-color="white"/>
<stop offset="1" stop-color="#F7DD43" stop-opacity="0"/>
</linearGradient>
<linearGradient id="paint24_linear_175_194" x1="704.742" y1="834.886" x2="704.742" y2="1217.69" gradientUnits="userSpaceOnUse">
<stop stop-color="white"/>
<stop offset="1" stop-color="#F7DD43" stop-opacity="0"/>
</linearGradient>
<linearGradient id="paint25_linear_175_194" x1="704.742" y1="834.886" x2="704.742" y2="1217.69" gradientUnits="userSpaceOnUse">
<stop stop-color="white"/>
<stop offset="1" stop-color="#F7DD43" stop-opacity="0"/>
</linearGradient>
<linearGradient id="paint26_linear_175_194" x1="704.742" y1="834.886" x2="704.742" y2="1217.69" gradientUnits="userSpaceOnUse">
<stop stop-color="white"/>
<stop offset="1" stop-color="#F7DD43" stop-opacity="0"/>
</linearGradient>
<linearGradient id="paint27_linear_175_194" x1="704.742" y1="834.886" x2="704.742" y2="1217.69" gradientUnits="userSpaceOnUse">
<stop stop-color="white"/>
<stop offset="1" stop-color="#F7DD43" stop-opacity="0"/>
</linearGradient>
<linearGradient id="paint28_linear_175_194" x1="704.742" y1="834.886" x2="704.742" y2="1217.69" gradientUnits="userSpaceOnUse">
<stop stop-color="white"/>
<stop offset="1" stop-color="#F7DD43" stop-opacity="0"/>
</linearGradient>
<linearGradient id="paint29_linear_175_194" x1="704.742" y1="834.886" x2="704.742" y2="1217.69" gradientUnits="userSpaceOnUse">
<stop stop-color="white"/>
<stop offset="1" stop-color="#F7DD43" stop-opacity="0"/>
</linearGradient>
<linearGradient id="paint30_linear_175_194" x1="704.742" y1="834.886" x2="704.742" y2="1217.69" gradientUnits="userSpaceOnUse">
<stop stop-color="white"/>
<stop offset="1" stop-color="#F7DD43" stop-opacity="0"/>
</linearGradient>
<linearGradient id="paint31_linear_175_194" x1="704.742" y1="834.886" x2="704.742" y2="1217.69" gradientUnits="userSpaceOnUse">
<stop stop-color="white"/>
<stop offset="1" stop-color="#F7DD43" stop-opacity="0"/>
</linearGradient>
<linearGradient id="paint32_linear_175_194" x1="704.742" y1="834.886" x2="704.742" y2="1217.69" gradientUnits="userSpaceOnUse">
<stop stop-color="white"/>
<stop offset="1" stop-color="#F7DD43" stop-opacity="0"/>
</linearGradient>
<linearGradient id="paint33_linear_175_194" x1="704.742" y1="834.886" x2="704.742" y2="1217.69" gradientUnits="userSpaceOnUse">
<stop stop-color="white"/>
<stop offset="1" stop-color="#F7DD43" stop-opacity="0"/>
</linearGradient>
<linearGradient id="paint34_linear_175_194" x1="704.742" y1="834.886" x2="704.742" y2="1217.69" gradientUnits="userSpaceOnUse">
<stop stop-color="white"/>
<stop offset="1" stop-color="#F7DD43" stop-opacity="0"/>
</linearGradient>
<linearGradient id="paint35_linear_175_194" x1="704.742" y1="834.886" x2="704.742" y2="1217.69" gradientUnits="userSpaceOnUse">
<stop stop-color="white"/>
<stop offset="1" stop-color="#F7DD43" stop-opacity="0"/>
</linearGradient>
<linearGradient id="paint36_linear_175_194" x1="704.742" y1="834.886" x2="704.742" y2="1217.69" gradientUnits="userSpaceOnUse">
<stop stop-color="white"/>
<stop offset="1" stop-color="#F7DD43" stop-opacity="0"/>
</linearGradient>
<linearGradient id="paint37_linear_175_194" x1="704.742" y1="834.886" x2="704.742" y2="1217.69" gradientUnits="userSpaceOnUse">
<stop stop-color="white"/>
<stop offset="1" stop-color="#F7DD43" stop-opacity="0"/>
</linearGradient>
<linearGradient id="paint38_linear_175_194" x1="704.742" y1="834.886" x2="704.742" y2="1217.69" gradientUnits="userSpaceOnUse">
<stop stop-color="white"/>
<stop offset="1" stop-color="#F7DD43" stop-opacity="0"/>
</linearGradient>
<linearGradient id="paint39_linear_175_194" x1="704.742" y1="834.886" x2="704.742" y2="1217.69" gradientUnits="userSpaceOnUse">
<stop stop-color="white"/>
<stop offset="1" stop-color="#F7DD43" stop-opacity="0"/>
</linearGradient>
<linearGradient id="paint40_linear_175_194" x1="704.742" y1="834.886" x2="704.742" y2="1217.69" gradientUnits="userSpaceOnUse">
<stop stop-color="white"/>
<stop offset="1" stop-color="#F7DD43" stop-opacity="0"/>
</linearGradient>
<linearGradient id="paint41_linear_175_194" x1="704.742" y1="834.886" x2="704.742" y2="1217.69" gradientUnits="userSpaceOnUse">
<stop stop-color="white"/>
<stop offset="1" stop-color="#F7DD43" stop-opacity="0"/>
</linearGradient>
<linearGradient id="paint42_linear_175_194" x1="704.742" y1="834.886" x2="704.742" y2="1217.69" gradientUnits="userSpaceOnUse">
<stop stop-color="white"/>
<stop offset="1" stop-color="#F7DD43" stop-opacity="0"/>
</linearGradient>
<linearGradient id="paint43_linear_175_194" x1="704.742" y1="834.886" x2="704.742" y2="1217.69" gradientUnits="userSpaceOnUse">
<stop stop-color="white"/>
<stop offset="1" stop-color="#F7DD43" stop-opacity="0"/>
</linearGradient>
<linearGradient id="paint44_linear_175_194" x1="704.742" y1="834.886" x2="704.742" y2="1217.69" gradientUnits="userSpaceOnUse">
<stop stop-color="white"/>
<stop offset="1" stop-color="#F7DD43" stop-opacity="0"/>
</linearGradient>
<linearGradient id="paint45_linear_175_194" x1="704.742" y1="834.886" x2="704.742" y2="1217.69" gradientUnits="userSpaceOnUse">
<stop stop-color="white"/>
<stop offset="1" stop-color="#F7DD43" stop-opacity="0"/>
</linearGradient>
<linearGradient id="paint46_linear_175_194" x1="704.742" y1="834.886" x2="704.742" y2="1217.69" gradientUnits="userSpaceOnUse">
<stop stop-color="white"/>
<stop offset="1" stop-color="#F7DD43" stop-opacity="0"/>
</linearGradient>
<linearGradient id="paint47_linear_175_194" x1="1968.77" y1="282.899" x2="1968.77" y2="650.256" gradientUnits="userSpaceOnUse">
<stop stop-color="#210D0D"/>
<stop offset="1" stop-color="#F7DD43" stop-opacity="0"/>
</linearGradient>
<linearGradient id="paint48_linear_175_194" x1="1968.77" y1="282.899" x2="1968.77" y2="650.256" gradientUnits="userSpaceOnUse">
<stop stop-color="#210D0D"/>
<stop offset="1" stop-color="#F7DD43" stop-opacity="0"/>
</linearGradient>
<linearGradient id="paint49_linear_175_194" x1="1968.77" y1="282.899" x2="1968.77" y2="650.256" gradientUnits="userSpaceOnUse">
<stop stop-color="#210D0D"/>
<stop offset="1" stop-color="#F7DD43" stop-opacity="0"/>
</linearGradient>
<linearGradient id="paint50_linear_175_194" x1="1968.77" y1="282.899" x2="1968.77" y2="650.256" gradientUnits="userSpaceOnUse">
<stop stop-color="#210D0D"/>
<stop offset="1" stop-color="#F7DD43" stop-opacity="0"/>
</linearGradient>
<linearGradient id="paint51_linear_175_194" x1="1968.77" y1="282.899" x2="1968.77" y2="650.256" gradientUnits="userSpaceOnUse">
<stop stop-color="#210D0D"/>
<stop offset="1" stop-color="#F7DD43" stop-opacity="0"/>
</linearGradient>
<linearGradient id="paint52_linear_175_194" x1="1968.77" y1="282.899" x2="1968.77" y2="650.256" gradientUnits="userSpaceOnUse">
<stop stop-color="#210D0D"/>
<stop offset="1" stop-color="#F7DD43" stop-opacity="0"/>
</linearGradient>
<linearGradient id="paint53_linear_175_194" x1="1968.77" y1="282.899" x2="1968.77" y2="650.256" gradientUnits="userSpaceOnUse">
<stop stop-color="#210D0D"/>
<stop offset="1" stop-color="#F7DD43" stop-opacity="0"/>
</linearGradient>
<linearGradient id="paint54_linear_175_194" x1="1968.77" y1="282.899" x2="1968.77" y2="650.256" gradientUnits="userSpaceOnUse">
<stop stop-color="#210D0D"/>
<stop offset="1" stop-color="#F7DD43" stop-opacity="0"/>
</linearGradient>
<linearGradient id="paint55_linear_175_194" x1="1968.77" y1="282.899" x2="1968.77" y2="650.256" gradientUnits="userSpaceOnUse">
<stop stop-color="#210D0D"/>
<stop offset="1" stop-color="#F7DD43" stop-opacity="0"/>
</linearGradient>
<linearGradient id="paint56_linear_175_194" x1="1968.77" y1="282.899" x2="1968.77" y2="650.256" gradientUnits="userSpaceOnUse">
<stop stop-color="#210D0D"/>
<stop offset="1" stop-color="#F7DD43" stop-opacity="0"/>
</linearGradient>
<linearGradient id="paint57_linear_175_194" x1="1968.77" y1="282.899" x2="1968.77" y2="650.256" gradientUnits="userSpaceOnUse">
<stop stop-color="#210D0D"/>
<stop offset="1" stop-color="#F7DD43" stop-opacity="0"/>
</linearGradient>
<linearGradient id="paint58_linear_175_194" x1="1968.77" y1="282.899" x2="1968.77" y2="650.256" gradientUnits="userSpaceOnUse">
<stop stop-color="#210D0D"/>
<stop offset="1" stop-color="#F7DD43" stop-opacity="0"/>
</linearGradient>
<linearGradient id="paint59_linear_175_194" x1="1968.77" y1="282.899" x2="1968.77" y2="650.256" gradientUnits="userSpaceOnUse">
<stop stop-color="#210D0D"/>
<stop offset="1" stop-color="#F7DD43" stop-opacity="0"/>
</linearGradient>
<linearGradient id="paint60_linear_175_194" x1="1968.77" y1="282.899" x2="1968.77" y2="650.256" gradientUnits="userSpaceOnUse">
<stop stop-color="#210D0D"/>
<stop offset="1" stop-color="#F7DD43" stop-opacity="0"/>
</linearGradient>
<linearGradient id="paint61_linear_175_194" x1="1968.77" y1="282.899" x2="1968.77" y2="650.256" gradientUnits="userSpaceOnUse">
<stop stop-color="#210D0D"/>
<stop offset="1" stop-color="#F7DD43" stop-opacity="0"/>
</linearGradient>
<linearGradient id="paint62_linear_175_194" x1="1968.77" y1="282.899" x2="1968.77" y2="650.256" gradientUnits="userSpaceOnUse">
<stop stop-color="#210D0D"/>
<stop offset="1" stop-color="#F7DD43" stop-opacity="0"/>
</linearGradient>
<linearGradient id="paint63_linear_175_194" x1="1968.77" y1="282.899" x2="1968.77" y2="650.256" gradientUnits="userSpaceOnUse">
<stop stop-color="#210D0D"/>
<stop offset="1" stop-color="#F7DD43" stop-opacity="0"/>
</linearGradient>
<linearGradient id="paint64_linear_175_194" x1="1968.77" y1="282.899" x2="1968.77" y2="650.256" gradientUnits="userSpaceOnUse">
<stop stop-color="#210D0D"/>
<stop offset="1" stop-color="#F7DD43" stop-opacity="0"/>
</linearGradient>
<linearGradient id="paint65_linear_175_194" x1="1968.77" y1="282.899" x2="1968.77" y2="650.256" gradientUnits="userSpaceOnUse">
<stop stop-color="#210D0D"/>
<stop offset="1" stop-color="#F7DD43" stop-opacity="0"/>
</linearGradient>
<linearGradient id="paint66_linear_175_194" x1="1968.77" y1="282.899" x2="1968.77" y2="650.256" gradientUnits="userSpaceOnUse">
<stop stop-color="#210D0D"/>
<stop offset="1" stop-color="#F7DD43" stop-opacity="0"/>
</linearGradient>
<linearGradient id="paint67_linear_175_194" x1="1968.77" y1="282.899" x2="1968.77" y2="650.256" gradientUnits="userSpaceOnUse">
<stop stop-color="#210D0D"/>
<stop offset="1" stop-color="#F7DD43" stop-opacity="0"/>
</linearGradient>
<linearGradient id="paint68_linear_175_194" x1="1968.77" y1="282.899" x2="1968.77" y2="650.256" gradientUnits="userSpaceOnUse">
<stop stop-color="#210D0D"/>
<stop offset="1" stop-color="#F7DD43" stop-opacity="0"/>
</linearGradient>
<linearGradient id="paint69_linear_175_194" x1="1968.77" y1="282.899" x2="1968.77" y2="650.256" gradientUnits="userSpaceOnUse">
<stop stop-color="#210D0D"/>
<stop offset="1" stop-color="#F7DD43" stop-opacity="0"/>
</linearGradient>
<linearGradient id="paint70_linear_175_194" x1="1968.77" y1="282.899" x2="1968.77" y2="650.256" gradientUnits="userSpaceOnUse">
<stop stop-color="#210D0D"/>
<stop offset="1" stop-color="#F7DD43" stop-opacity="0"/>
</linearGradient>
<linearGradient id="paint71_linear_175_194" x1="1968.77" y1="282.899" x2="1968.77" y2="650.256" gradientUnits="userSpaceOnUse">
<stop stop-color="#210D0D"/>
<stop offset="1" stop-color="#F7DD43" stop-opacity="0"/>
</linearGradient>
<linearGradient id="paint72_linear_175_194" x1="1968.77" y1="282.899" x2="1968.77" y2="650.256" gradientUnits="userSpaceOnUse">
<stop stop-color="#210D0D"/>
<stop offset="1" stop-color="#F7DD43" stop-opacity="0"/>
</linearGradient>
<linearGradient id="paint73_linear_175_194" x1="1968.77" y1="282.899" x2="1968.77" y2="650.256" gradientUnits="userSpaceOnUse">
<stop stop-color="#210D0D"/>
<stop offset="1" stop-color="#F7DD43" stop-opacity="0"/>
</linearGradient>
<linearGradient id="paint74_linear_175_194" x1="1968.77" y1="282.899" x2="1968.77" y2="650.256" gradientUnits="userSpaceOnUse">
<stop stop-color="#210D0D"/>
<stop offset="1" stop-color="#F7DD43" stop-opacity="0"/>
</linearGradient>
<linearGradient id="paint75_linear_175_194" x1="1968.77" y1="282.899" x2="1968.77" y2="650.256" gradientUnits="userSpaceOnUse">
<stop stop-color="#210D0D"/>
<stop offset="1" stop-color="#F7DD43" stop-opacity="0"/>
</linearGradient>
<linearGradient id="paint76_linear_175_194" x1="1968.77" y1="282.899" x2="1968.77" y2="650.256" gradientUnits="userSpaceOnUse">
<stop stop-color="#210D0D"/>
<stop offset="1" stop-color="#F7DD43" stop-opacity="0"/>
</linearGradient>
<linearGradient id="paint77_linear_175_194" x1="1968.77" y1="282.899" x2="1968.77" y2="650.256" gradientUnits="userSpaceOnUse">
<stop stop-color="#210D0D"/>
<stop offset="1" stop-color="#F7DD43" stop-opacity="0"/>
</linearGradient>
<linearGradient id="paint78_linear_175_194" x1="1968.77" y1="282.899" x2="1968.77" y2="650.256" gradientUnits="userSpaceOnUse">
<stop stop-color="#210D0D"/>
<stop offset="1" stop-color="#F7DD43" stop-opacity="0"/>
</linearGradient>
<linearGradient id="paint79_linear_175_194" x1="1968.77" y1="282.899" x2="1968.77" y2="650.256" gradientUnits="userSpaceOnUse">
<stop stop-color="#210D0D"/>
<stop offset="1" stop-color="#F7DD43" stop-opacity="0"/>
</linearGradient>
<linearGradient id="paint80_linear_175_194" x1="1968.77" y1="282.899" x2="1968.77" y2="650.256" gradientUnits="userSpaceOnUse">
<stop stop-color="#210D0D"/>
<stop offset="1" stop-color="#F7DD43" stop-opacity="0"/>
</linearGradient>
<linearGradient id="paint81_linear_175_194" x1="1968.77" y1="282.899" x2="1968.77" y2="650.256" gradientUnits="userSpaceOnUse">
<stop stop-color="#210D0D"/>
<stop offset="1" stop-color="#F7DD43" stop-opacity="0"/>
</linearGradient>
<linearGradient id="paint82_linear_175_194" x1="1968.77" y1="282.899" x2="1968.77" y2="650.256" gradientUnits="userSpaceOnUse">
<stop stop-color="#210D0D"/>
<stop offset="1" stop-color="#F7DD43" stop-opacity="0"/>
</linearGradient>
<linearGradient id="paint83_linear_175_194" x1="1968.77" y1="282.899" x2="1968.77" y2="650.256" gradientUnits="userSpaceOnUse">
<stop stop-color="#210D0D"/>
<stop offset="1" stop-color="#F7DD43" stop-opacity="0"/>
</linearGradient>
<linearGradient id="paint84_linear_175_194" x1="1968.77" y1="282.899" x2="1968.77" y2="650.256" gradientUnits="userSpaceOnUse">
<stop stop-color="#210D0D"/>
<stop offset="1" stop-color="#F7DD43" stop-opacity="0"/>
</linearGradient>
<linearGradient id="paint85_linear_175_194" x1="1968.77" y1="282.899" x2="1968.77" y2="650.256" gradientUnits="userSpaceOnUse">
<stop stop-color="#210D0D"/>
<stop offset="1" stop-color="#F7DD43" stop-opacity="0"/>
</linearGradient>
<linearGradient id="paint86_linear_175_194" x1="1968.77" y1="282.899" x2="1968.77" y2="650.256" gradientUnits="userSpaceOnUse">
<stop stop-color="#210D0D"/>
<stop offset="1" stop-color="#F7DD43" stop-opacity="0"/>
</linearGradient>
<linearGradient id="paint87_linear_175_194" x1="1968.77" y1="282.899" x2="1968.77" y2="650.256" gradientUnits="userSpaceOnUse">
<stop stop-color="#210D0D"/>
<stop offset="1" stop-color="#F7DD43" stop-opacity="0"/>
</linearGradient>
<linearGradient id="paint88_linear_175_194" x1="1968.77" y1="282.899" x2="1968.77" y2="650.256" gradientUnits="userSpaceOnUse">
<stop stop-color="#210D0D"/>
<stop offset="1" stop-color="#F7DD43" stop-opacity="0"/>
</linearGradient>
<linearGradient id="paint89_linear_175_194" x1="1968.77" y1="282.899" x2="1968.77" y2="650.256" gradientUnits="userSpaceOnUse">
<stop stop-color="#210D0D"/>
<stop offset="1" stop-color="#F7DD43" stop-opacity="0"/>
</linearGradient>
<linearGradient id="paint90_linear_175_194" x1="1968.77" y1="282.899" x2="1968.77" y2="650.256" gradientUnits="userSpaceOnUse">
<stop stop-color="#210D0D"/>
<stop offset="1" stop-color="#F7DD43" stop-opacity="0"/>
</linearGradient>
<linearGradient id="paint91_linear_175_194" x1="1968.77" y1="282.899" x2="1968.77" y2="650.256" gradientUnits="userSpaceOnUse">
<stop stop-color="#210D0D"/>
<stop offset="1" stop-color="#F7DD43" stop-opacity="0"/>
</linearGradient>
<linearGradient id="paint92_linear_175_194" x1="1968.77" y1="282.899" x2="1968.77" y2="650.256" gradientUnits="userSpaceOnUse">
<stop stop-color="#210D0D"/>
<stop offset="1" stop-color="#F7DD43" stop-opacity="0"/>
</linearGradient>
<linearGradient id="paint93_linear_175_194" x1="1968.77" y1="282.899" x2="1968.77" y2="650.256" gradientUnits="userSpaceOnUse">
<stop stop-color="#210D0D"/>
<stop offset="1" stop-color="#F7DD43" stop-opacity="0"/>
</linearGradient>
</defs>
</svg>
