<svg width="50" height="51" viewBox="0 0 50 51" fill="none" xmlns="http://www.w3.org/2000/svg">
<g clip-path="url(#clip0_410_151)">
<path d="M0 25.9091C0 36.6581 6.78438 45.8217 16.3042 49.354L18.4782 25.909L16.3042 2.46407C6.78438 5.99649 0 15.16 0 25.9091Z" fill="#6DA544"/>
<path d="M50 25.9091C50 12.1021 38.807 0.909088 25 0.909088C21.942 0.909088 19.0126 1.45919 16.3042 2.46407V49.3541C19.0126 50.3591 21.942 50.9091 25 50.9091C38.807 50.9091 50 39.7161 50 25.9091Z" fill="#D80027"/>
<path d="M16.3044 34.6047C21.1068 34.6047 25 30.7115 25 25.9091C25 21.1066 21.1068 17.2135 16.3044 17.2135C11.5019 17.2135 7.60876 21.1066 7.60876 25.9091C7.60876 30.7115 11.5019 34.6047 16.3044 34.6047Z" fill="#FFDA44"/>
<path d="M11.4131 21.5612V26.996C11.4131 29.6974 13.6029 31.8873 16.3044 31.8873C19.0059 31.8873 21.1957 29.6975 21.1957 26.996V21.5612H11.4131Z" fill="#D80027"/>
<path d="M16.3044 28.6265C15.4054 28.6265 14.674 27.895 14.674 26.996V24.8222H17.9348V26.9961C17.9348 27.895 17.2033 28.6265 16.3044 28.6265Z" fill="#F0F0F0"/>
</g>
<defs>
<clipPath id="clip0_410_151">
<rect width="50" height="50" fill="white" transform="translate(0 0.909088)"/>
</clipPath>
</defs>
</svg>
