<svg width="50" height="51" viewBox="0 0 50 51" fill="none" xmlns="http://www.w3.org/2000/svg">
<g clip-path="url(#clip0_410_165)">
<path d="M33.6956 2.37316C30.9873 1.36827 28.058 0.818176 25 0.818176C21.942 0.818176 19.0127 1.36827 16.3044 2.37316L14.1305 25.8182L16.3044 49.2632C19.0127 50.2682 21.942 50.8182 25 50.8182C28.058 50.8182 30.9873 50.2682 33.6956 49.2632L35.8696 25.8182L33.6956 2.37316Z" fill="#FFDA44"/>
<path d="M49.9999 25.8182C49.9999 15.0692 43.2156 5.90549 33.6956 2.37326V49.2634C43.2156 45.7309 49.9999 36.5674 49.9999 25.8182V25.8182Z" fill="#D80027"/>
<path d="M0 25.8182C0 36.5674 6.78437 45.7309 16.3044 49.2633V2.37326C6.78437 5.90549 0 15.0692 0 25.8182V25.8182Z" fill="black"/>
</g>
<defs>
<clipPath id="clip0_410_165">
<rect width="50" height="50" fill="white" transform="translate(0 0.818176)"/>
</clipPath>
</defs>
</svg>
