<svg width="50" height="51" viewBox="0 0 50 51" fill="none" xmlns="http://www.w3.org/2000/svg">
<g clip-path="url(#clip0_410_165)">
<path d="M25 50.8182C38.8071 50.8182 50 39.6253 50 25.8182C50 12.0111 38.8071 0.818176 25 0.818176C11.1929 0.818176 0 12.0111 0 25.8182C0 39.6253 11.1929 50.8182 25 50.8182Z" fill="#6DA544"/>
<path d="M14.1305 30.7095C14.1305 32.5104 15.5905 33.9703 17.3913 33.9703H27.1739C27.1739 35.4711 28.3906 36.6877 29.8913 36.6877H33.1522C34.653 36.6877 35.8696 35.4711 35.8696 33.9703V30.7095H14.1305Z" fill="#F0F0F0"/>
<path d="M36.1413 14.9486V22.5573C36.1413 23.7561 35.1661 24.7313 33.9674 24.7313V27.9921C36.9642 27.9921 39.4022 25.554 39.4022 22.5573V14.9486H36.1413Z" fill="#F0F0F0"/>
<path d="M12.7718 22.5573C12.7718 23.7561 11.7966 24.7313 10.5979 24.7313V27.9921C13.5947 27.9921 16.0327 25.554 16.0327 22.5573V14.9486H12.7718V22.5573Z" fill="#F0F0F0"/>
<path d="M31.25 14.9486H34.5108V22.5573H31.25V14.9486Z" fill="#F0F0F0"/>
<path d="M26.3587 19.2964C26.3587 19.5961 26.1148 19.8399 25.8152 19.8399C25.5156 19.8399 25.2718 19.596 25.2718 19.2964V14.9485H22.0109V19.2964C22.0109 19.5961 21.7671 19.8399 21.4675 19.8399C21.1679 19.8399 20.924 19.596 20.924 19.2964V14.9485H17.6631V19.2964C17.6631 21.3942 19.3697 23.1008 21.4675 23.1008C22.2754 23.1008 23.0246 22.8469 23.6414 22.4156C24.2581 22.8468 25.0074 23.1008 25.8153 23.1008C25.978 23.1008 26.138 23.0894 26.2953 23.0693C26.0643 24.0214 25.2068 24.7312 24.1849 24.7312V27.992C27.1816 27.992 29.6196 25.5539 29.6196 22.5572V19.2964V14.9485H26.3588V19.2964H26.3587Z" fill="#F0F0F0"/>
<path d="M17.6631 24.7313H22.5544V27.9921H17.6631V24.7313Z" fill="#F0F0F0"/>
</g>
<defs>
<clipPath id="clip0_410_165">
<rect width="50" height="50" fill="white" transform="translate(0 0.818176)"/>
</clipPath>
</defs>
</svg>
